<svg width="108" height="230" viewBox="0 0 108 230" fill="none" xmlns="http://www.w3.org/2000/svg">
<g clip-path="url(#clip0_445_6)">
<path d="M19.8809 189.556L34.1834 195.506L36.8903 194.742L70.4392 218.824L70.9678 217.59L72.0006 202.451L77.1157 192.406C77.1157 192.406 81.7804 191.613 77.9282 172.488L83.3125 161.919L79.475 152.016C79.475 152.016 73.9439 148.039 70.6643 143.798C67.3848 139.556 58.4274 133.273 57.7813 131.142C57.1352 129.012 57.7813 123.879 57.7813 123.879C57.7813 123.879 55.0989 118.688 55.0108 113.648L57.0275 98.0789C57.0275 98.0789 59.9056 86.6283 60.2825 79.4142C60.6594 72.2001 62.6173 69.286 62.5977 66.1907C62.5782 63.0955 61.7363 60.4214 62.7886 58.2567C63.841 56.0919 61.6433 56.2976 62.9795 51.9241C64.3158 47.5506 63.8997 45.9001 64.4822 44.088C65.0647 42.2759 65.8087 37.6232 66.1073 36.4086C66.4059 35.194 64.5263 34.0381 68.5547 31.6922C72.5831 29.3463 71.0461 25.9376 73.9047 21.6326C76.7633 17.3276 74.9179 18.1308 75.2116 16.4216C75.5053 14.7123 74.9228 13.8014 74.4236 11.7101C73.9243 9.61883 75.0354 7.53246 74.9131 6.25909C74.7907 4.98572 72.5537 1.27336 72.5537 1.27336L29.6655 0.460358L28.5789 1.29784C28.5789 1.29784 30.8256 5.49996 30.4977 11.8129C30.1697 18.1259 31.2514 38.3088 31.6724 40.4589C32.0934 42.6089 31.9171 42.8685 31.6724 43.6717C31.4277 44.4749 31.2759 45.0871 32.4899 46.5025C33.7038 47.9179 31.4228 47.2028 31.4473 50.7683C31.4717 54.3337 31.8144 65.2014 31.8144 65.2014L30.8354 66.1809C30.8354 66.1809 30.1355 76.985 30.8354 81.6181C31.5354 86.2512 29.7194 93.4849 30.1893 96.3353C30.6592 99.1857 28.995 103.936 29.5138 106.375C30.0327 108.814 29.4061 119.075 28.3342 122.498C27.2622 125.922 26.342 139.488 25.3973 145.517C24.4526 151.546 22.994 166.782 21.7213 174.442C20.4487 182.102 19.8809 189.556 19.8809 189.556Z" stroke="white" stroke-width="2" stroke-miterlimit="10"/>
</g>
<path d="M100.707 187.293C100.317 186.902 99.6834 186.902 99.2929 187.293L92.9289 193.657C92.5384 194.047 92.5384 194.681 92.9289 195.071C93.3195 195.462 93.9526 195.462 94.3431 195.071L100 189.414L105.657 195.071C106.047 195.462 106.681 195.462 107.071 195.071C107.462 194.681 107.462 194.047 107.071 193.657L100.707 187.293ZM101 214L101 188L99 188L99 214L101 214Z" fill="#FFDAD7"/>
<path d="M7.29289 25.7071C7.68342 26.0976 8.31658 26.0976 8.70711 25.7071L15.0711 19.3431C15.4616 18.9526 15.4616 18.3195 15.0711 17.9289C14.6805 17.5384 14.0474 17.5384 13.6569 17.9289L8 23.5858L2.34315 17.9289C1.95262 17.5384 1.31946 17.5384 0.928931 17.9289C0.538407 18.3195 0.538407 18.9526 0.928931 19.3431L7.29289 25.7071ZM7 2L7 25L9 25L9 2L7 2Z" fill="#FFDAD7"/>
<defs>
<clipPath id="clip0_445_6">
<rect width="77" height="230" fill="white" transform="translate(12)"/>
</clipPath>
</defs>
</svg>
