<svg width="135" height="140" viewBox="0 0 135 140" fill="none" xmlns="http://www.w3.org/2000/svg">
<rect width="135" height="140" fill="#006579"/>
<g clip-path="url(#clip0_443_4)">
<path d="M45.2041 103.748L51.0156 108.222L52.3471 108.204L64.7385 123.328L65.1315 122.828L67.4588 116.031L71.0288 112.065C71.0288 112.065 73.2592 112.273 73.8411 103.055L77.5984 98.8818L77.057 93.8829C77.057 93.8829 75.0149 91.3865 74.0348 89.045C73.0548 86.7036 69.7284 82.7325 69.694 81.679C69.6596 80.6256 70.584 78.3575 70.584 78.3575C70.584 78.3575 69.9935 75.6548 70.5707 73.3393L73.4007 66.4664C73.4007 66.4664 76.12 61.5827 77.1764 58.3297C78.2327 55.0768 79.4852 53.9841 79.8555 52.5662C80.2258 51.1484 80.1685 49.8223 80.915 48.9613C81.6615 48.1003 80.6313 47.9251 81.7783 46.0888C82.9253 44.2525 82.9372 43.4467 83.4257 42.6894C83.9141 41.9321 84.8245 39.8955 85.1098 39.3766C85.3952 38.8578 84.6773 38.0989 86.807 37.5197C88.9367 36.9405 88.6515 35.1933 90.4862 33.5749C92.321 31.9565 91.3787 32.0977 91.7224 31.352C92.0662 30.6063 91.9114 30.1184 91.9394 29.1008C91.9673 28.0833 92.7311 27.2654 92.8312 26.668C92.9312 26.0707 92.3631 24.0989 92.3631 24.0989L72.8496 18.4718L72.2501 18.7216C72.2501 18.7216 72.7626 20.9186 71.8391 23.7654C70.9155 26.6122 68.9371 35.9746 68.8661 37.0094C68.7952 38.0442 68.6828 38.1413 68.4725 38.4786C68.2621 38.8159 68.1177 39.0773 68.4994 39.8733C68.8811 40.6694 67.9256 40.0629 67.4999 41.6964C67.0742 43.3299 65.8992 48.3418 65.8992 48.3418L65.3315 48.6698C65.3315 48.6698 63.6875 53.5248 63.4399 55.7293C63.1923 57.9338 61.4754 61.0194 61.3411 62.3804C61.2067 63.7415 59.8635 65.7101 59.8019 66.8891C59.7403 68.068 58.1965 72.6834 57.2868 74.1176C56.3771 75.5518 54.2939 81.643 53.1232 84.2844C51.9524 86.9257 49.4183 93.7147 47.8977 97.0616C46.3771 100.409 45.2041 103.748 45.2041 103.748Z" stroke="white" stroke-width="1.3" stroke-miterlimit="10"/>
<ellipse cx="51.0617" cy="98.0238" rx="1.89376" ry="1.89376" fill="#F07F79"/>
</g>
<defs>
<clipPath id="clip0_443_4">
<rect width="36.4549" height="108.891" fill="white" transform="translate(64.8281 16.0967) rotate(15)"/>
</clipPath>
</defs>
</svg>
