<svg width="133" height="133" viewBox="0 0 133 133" fill="none" xmlns="http://www.w3.org/2000/svg">
<path d="M97.8619 101.434C117.251 84.1314 118.92 54.4112 101.591 35.0523C84.2611 15.6934 54.4952 14.0266 35.1064 31.3294C15.7177 48.6322 14.0483 78.3523 31.3777 97.7112C48.7072 117.07 78.4731 118.737 97.8619 101.434Z" fill="#FAF3E7"/>
<path d="M93.7393 66.423C94.6033 67.2881 95.0885 68.46 95.0885 69.6817C95.0885 70.9034 94.6033 72.0752 93.7393 72.9403L69.6762 96.9487C69.2496 97.3801 68.7414 97.7226 68.1811 97.9564C67.6209 98.1901 67.0198 98.3105 66.4126 98.3105C65.8054 98.3105 65.2042 98.1901 64.6439 97.9564C64.0837 97.7226 63.5755 97.3801 63.1489 96.9487L39.2445 73.0812C38.4535 72.2026 38.0301 71.0544 38.0616 69.8734C38.093 68.6923 38.577 67.5682 39.4137 66.7328C40.2504 65.8973 41.3762 65.4141 42.5591 65.3827C43.742 65.3513 44.8919 65.7741 45.7719 66.5639L66.4126 87.1727L87.1943 66.423C87.6236 65.9932 88.1337 65.6522 88.6952 65.4196C89.2568 65.1869 89.8588 65.0671 90.4668 65.0671C91.0747 65.0671 91.6767 65.1869 92.2383 65.4196C92.7998 65.6522 93.3099 65.9932 93.7393 66.423Z" fill="black"/>
<path d="M66.4478 16.6976C76.1101 16.6976 85.5553 19.5586 93.5889 24.9188C101.623 30.2789 107.884 37.8975 111.58 46.8108C115.277 55.7242 116.244 65.5319 114.357 74.9936C112.471 84.4554 107.817 93.1461 100.983 99.9666C94.1499 106.787 85.444 111.431 75.967 113.311C66.49 115.191 56.6675 114.223 47.7417 110.528C38.816 106.834 31.1879 100.58 25.8224 92.5565C20.4569 84.5333 17.5949 75.1016 17.5984 65.4542C17.6171 52.5258 22.7703 40.1325 31.9278 30.9924C41.0853 21.8523 53.4995 16.7116 66.4478 16.6976ZM66.4478 110.706C75.4115 110.706 84.1739 108.052 91.6269 103.079C99.0799 98.107 104.889 91.0398 108.319 82.7712C111.749 74.5026 112.647 65.404 110.898 56.6261C109.149 47.8482 104.833 39.7852 98.4947 33.4567C92.1564 27.1281 84.081 22.8184 75.2895 21.0724C66.4981 19.3263 57.3855 20.2225 49.1042 23.6474C40.8228 27.0724 33.7447 32.8724 28.7647 40.3139C23.7848 47.7554 21.1267 56.5043 21.1267 65.4542C21.136 77.4528 25.9139 88.9572 34.4113 97.4414C42.9086 105.926 54.4308 110.696 66.4478 110.706Z" fill="black"/>
<path d="M66.4478 61.3676L87.2296 40.6179C88.0985 39.7674 89.2683 39.2933 90.4851 39.2985C91.7019 39.3037 92.8675 39.7878 93.7291 40.6458C94.5907 41.5037 95.0787 42.6662 95.0872 43.8812C95.0957 45.0961 94.624 46.2653 93.7746 47.1352L69.7115 71.1612C68.8451 72.0238 67.6714 72.5083 66.4478 72.5083C65.2242 72.5083 64.0506 72.0238 63.1841 71.1612L39.2799 47.2761C38.4888 46.3974 38.0654 45.2493 38.0969 44.0682C38.1283 42.8871 38.6123 41.7631 39.449 40.9277C40.2857 40.0922 41.4115 39.609 42.5944 39.5776C43.7773 39.5462 44.9272 39.9689 45.8072 40.7588L66.4478 61.3676Z" fill="black"/>
</svg>
