<svg width="71" height="61" viewBox="0 0 71 61" fill="none" xmlns="http://www.w3.org/2000/svg">
<g clip-path="url(#clip0_589_29)">
<path d="M65.9325 61.0007H5.06747C4.17441 61.0008 3.29723 60.7661 2.5251 60.3206C1.75297 59.875 1.1134 59.2344 0.671402 58.4638C0.229403 57.6933 0.000728789 56.8203 0.0086204 55.9336C0.016512 55.0468 0.260688 54.178 0.716332 53.4153L31.1485 2.4608C31.5964 1.71105 32.2331 1.08996 32.996 0.658555C33.7589 0.227155 34.6217 0.000305176 35.4996 0.000305176C36.3776 0.000305176 37.2404 0.227155 38.0033 0.658555C38.7662 1.08996 39.4028 1.71105 39.8508 2.4608L70.2836 53.4153C70.739 54.178 70.983 55.0468 70.9908 55.9335C70.9986 56.8201 70.7699 57.693 70.3279 58.4635C69.886 59.2339 69.2465 59.8745 68.4745 60.3202C67.7025 60.7658 66.8255 61.0006 65.9325 61.0007Z" fill="#FFDAD7"/>
<path d="M33.3631 42.1953L31.8739 20.2295C31.8092 19.2743 32.1292 18.3327 32.7637 17.6118C33.3981 16.8909 34.2949 16.4498 35.2569 16.3855C36.2189 16.3212 37.1672 16.639 37.8932 17.269C38.6192 17.8989 39.0634 18.7895 39.1282 19.7446C39.1386 19.9061 39.1386 20.068 39.1282 20.2295L37.6376 42.1953C37.3809 44.8271 33.6156 44.8223 33.3631 42.1953Z" fill="#373737"/>
<path d="M35.4997 53.1258C37.1377 53.1258 38.4655 51.8073 38.4655 50.1809C38.4655 48.5545 37.1377 47.236 35.4997 47.236C33.8617 47.236 32.5338 48.5545 32.5338 50.1809C32.5338 51.8073 33.8617 53.1258 35.4997 53.1258Z" fill="#373737"/>
</g>
<defs>
<clipPath id="clip0_589_29">
<rect width="71" height="61" fill="white"/>
</clipPath>
</defs>
</svg>
